<?xml version="1.0" standalone="no"?>
<!DOCTYPE svg PUBLIC "-//W3C//DTD SVG 20010904//EN"
 "http://www.w3.org/TR/2001/REC-SVG-20010904/DTD/svg10.dtd">
<svg version="1.0" xmlns="http://www.w3.org/2000/svg"
 width="573.000000pt" height="571.000000pt" viewBox="0 0 573.000000 571.000000"
 preserveAspectRatio="xMidYMid meet">

<g transform="translate(0.000000,571.000000) scale(0.100000,-0.100000)"
fill="#000000" stroke="none">
<path d="M2768 5675 c-2 -2 -46 -5 -96 -6 -97 -1 -158 -11 -174 -27 -5 -5 -13
-25 -18 -43 -31 -121 -130 -391 -152 -416 -11 -11 -40 -26 -66 -33 -25 -6 -64
-19 -86 -29 -23 -10 -54 -22 -71 -25 -16 -4 -61 -21 -100 -38 -38 -17 -90 -39
-115 -50 -91 -39 -170 -81 -186 -99 -20 -22 -77 -17 -134 11 -19 10 -50 24
-67 30 -18 7 -33 16 -33 21 0 5 -7 9 -15 9 -8 0 -23 4 -33 8 -9 5 -44 22 -77
37 -33 16 -77 39 -97 52 -51 31 -93 30 -128 -5 -15 -15 -63 -59 -106 -97 -43
-39 -99 -88 -123 -110 -55 -50 -248 -260 -260 -284 -7 -13 14 -65 95 -225 66
-132 104 -219 104 -239 0 -19 -24 -81 -59 -152 -119 -241 -160 -346 -164 -418
-2 -27 -9 -52 -15 -56 -7 -4 -21 -23 -30 -42 -24 -48 -61 -69 -197 -112 -66
-20 -157 -49 -202 -64 -45 -14 -90 -34 -99 -44 -15 -17 -17 -55 -18 -341 -1
-323 5 -416 27 -422 7 -2 37 -9 67 -16 30 -7 62 -16 70 -21 8 -4 53 -19 100
-34 196 -61 266 -98 259 -136 -5 -32 15 -99 61 -204 5 -11 23 -55 40 -99 16
-43 53 -121 81 -174 28 -53 46 -98 41 -100 -6 -2 1 -14 15 -28 43 -43 29 -93
-87 -317 -67 -130 -98 -201 -94 -212 10 -24 125 -145 139 -145 17 0 75 -64 75
-82 0 -17 64 -79 102 -99 12 -6 30 -18 38 -25 8 -7 40 -35 70 -60 30 -26 56
-53 58 -61 2 -7 11 -13 20 -13 9 0 25 -7 35 -14 15 -11 26 -9 83 20 36 19 76
34 90 34 13 0 24 4 24 9 0 5 50 34 111 65 90 45 121 56 160 56 49 0 121 -22
149 -46 23 -18 216 -102 279 -121 31 -9 70 -22 86 -29 17 -7 60 -20 98 -30 70
-18 117 -50 117 -80 0 -23 22 -84 30 -84 4 0 15 -26 25 -57 10 -32 26 -80 36
-107 11 -27 19 -56 19 -66 0 -9 3 -20 7 -23 3 -4 14 -29 22 -55 l16 -47 140
-11 c137 -12 324 -11 498 2 111 8 128 20 157 116 12 40 25 78 30 83 4 6 10 25
14 43 3 19 12 48 20 65 8 18 24 64 36 104 18 62 26 75 57 93 38 22 150 64 217
81 35 9 145 56 221 96 225 117 224 116 318 87 29 -10 59 -22 67 -29 14 -11
219 -112 287 -141 31 -14 33 -13 92 36 151 126 451 445 451 479 0 7 -42 98
-94 204 -109 225 -117 255 -81 331 14 29 25 58 25 64 0 6 4 12 8 14 14 5 143
323 162 398 20 78 51 139 74 146 11 4 24 11 28 17 3 6 20 12 37 13 16 1 35 6
43 10 15 10 50 23 158 60 41 14 80 30 85 34 6 5 27 11 48 15 72 14 72 13 72
415 l0 355 -55 27 c-30 15 -73 30 -95 34 -47 8 -181 50 -209 65 -10 6 -38 12
-63 14 -46 3 -83 27 -83 54 0 9 -7 27 -16 39 -9 13 -14 34 -11 48 3 16 -1 28
-9 31 -8 3 -14 13 -14 23 0 10 -13 49 -30 88 -16 38 -34 91 -40 118 -13 58
-89 214 -105 214 -6 0 -18 19 -28 41 -26 61 -20 80 113 354 89 184 89 186 31
249 -117 127 -215 226 -226 226 -12 0 -75 61 -75 73 0 4 -25 31 -57 60 -31 28
-66 62 -78 75 -12 12 -30 22 -39 22 -9 0 -56 -20 -104 -45 -130 -66 -278 -135
-291 -135 -7 0 -26 -7 -43 -16 -28 -15 -34 -15 -69 2 -22 9 -39 21 -39 26 0 4
-7 8 -15 8 -9 0 -52 18 -98 39 -99 47 -229 100 -317 130 -36 12 -74 26 -85 31
-11 5 -30 12 -42 15 -25 7 -88 103 -98 150 -8 37 -26 77 -41 90 -7 6 -17 35
-24 65 -20 87 -50 178 -63 188 -7 6 -66 13 -132 16 -224 12 -362 16 -367 11z
m268 -66 c94 -6 164 -15 171 -22 12 -12 81 -192 123 -322 48 -147 54 -154 205
-200 142 -43 329 -121 464 -192 147 -78 109 -83 381 50 102 50 193 90 204 89
27 -3 107 -69 230 -190 153 -151 229 -246 221 -275 -4 -12 -47 -106 -97 -209
-49 -103 -92 -202 -95 -222 -4 -29 4 -53 55 -148 83 -157 117 -237 182 -428
l56 -165 54 -26 c30 -15 134 -52 230 -84 96 -32 181 -63 188 -70 31 -29 41
-538 11 -623 -13 -37 -28 -44 -234 -115 -88 -30 -179 -62 -201 -71 -48 -20
-54 -32 -110 -211 -38 -122 -109 -294 -183 -442 -23 -45 -41 -92 -41 -104 0
-13 45 -116 100 -229 55 -114 100 -212 100 -217 0 -6 -12 -28 -27 -50 -82
-120 -388 -413 -431 -413 -25 0 -75 22 -295 131 -144 72 -169 74 -259 23 -147
-84 -332 -163 -511 -221 -60 -20 -117 -43 -127 -53 -9 -9 -43 -93 -75 -186
-107 -309 -93 -292 -247 -306 -103 -10 -426 -4 -487 8 -28 6 -37 15 -55 58
-12 28 -28 71 -35 96 -20 68 -72 220 -93 266 -25 59 -43 70 -158 104 -170 51
-317 109 -462 181 -75 38 -149 69 -165 69 -16 0 -116 -43 -236 -102 l-207
-102 -35 18 c-77 42 -435 408 -435 445 0 8 42 100 94 205 52 105 98 207 101
227 6 30 -3 53 -63 170 -83 160 -137 285 -186 433 -48 143 -60 165 -103 183
-36 14 -171 62 -308 108 -114 38 -124 44 -132 84 -10 47 -10 512 0 572 9 55 2
51 245 133 178 61 234 87 251 120 6 11 33 91 61 176 35 108 79 213 145 346 52
105 95 198 95 207 0 8 -47 110 -105 227 -58 116 -105 215 -105 219 0 10 55 74
150 175 93 98 309 286 330 286 9 0 104 -43 211 -96 107 -53 208 -98 224 -101
23 -3 60 11 153 56 171 85 287 133 422 176 148 47 180 63 203 103 11 18 49
121 86 228 41 117 75 200 84 206 15 8 163 22 278 27 20 0 107 -4 195 -10z"/>
<path d="M2571 4914 c-209 -30 -409 -93 -616 -194 -317 -155 -598 -395 -797
-680 -193 -277 -323 -621 -358 -946 -18 -166 -8 -492 18 -619 98 -465 313
-847 648 -1149 156 -141 261 -214 454 -317 162 -87 384 -160 610 -201 163 -29
486 -32 649 -4 469 78 827 258 1165 585 520 505 730 1263 550 1986 -87 353
-284 694 -551 957 -126 124 -170 162 -273 232 -143 97 -192 124 -390 214 -126
56 -342 114 -518 137 -141 19 -461 18 -591 -1z m-923 -797 c6 -7 15 -31 21
-52 31 -125 47 -175 56 -177 12 -4 43 86 57 165 12 65 23 75 85 75 37 1 44 -3
49 -22 3 -13 -16 -99 -45 -202 -27 -98 -57 -209 -66 -245 -13 -52 -22 -69 -41
-78 -61 -28 -92 -7 -114 77 -25 96 -110 373 -120 391 -13 26 -13 54 2 69 16
16 103 15 116 -1z m735 -9 c10 -17 14 -69 15 -193 2 -176 11 -225 42 -225 32
0 40 44 40 236 0 204 -2 198 68 198 57 0 59 -6 52 -249 -6 -233 -7 -242 -58
-280 -40 -30 -137 -33 -190 -6 -65 33 -74 55 -77 184 -2 62 -4 160 -6 220 -1
59 2 112 7 116 8 8 28 13 81 20 7 0 19 -9 26 -21z m409 -1 c4 -6 7 -97 7 -200
1 -104 3 -193 6 -198 4 -5 18 -9 33 -9 43 0 72 -26 72 -63 -1 -59 -15 -67
-128 -67 -97 0 -102 1 -107 23 -3 12 -4 134 -3 272 l3 249 25 7 c32 10 82 2
92 -14z m1106 14 c7 -4 17 -24 22 -44 10 -47 -5 -68 -56 -76 -38 -6 -39 -8
-39 -46 0 -37 2 -40 30 -43 43 -5 55 -19 55 -62 0 -43 -12 -57 -55 -62 -26 -3
-30 -8 -33 -36 -4 -42 14 -65 44 -58 41 11 54 -2 54 -54 0 -27 -4 -51 -10 -55
-15 -10 -184 -12 -202 -3 -16 8 -18 30 -18 256 0 183 3 253 13 265 9 12 32 17
87 20 41 2 80 4 85 5 6 1 16 -2 23 -7z m331 -9 c44 -35 23 -112 -30 -112 -81
0 -129 -104 -98 -213 13 -48 43 -75 97 -89 50 -12 56 -19 54 -66 -3 -66 -39
-78 -136 -42 -60 23 -107 69 -137 134 -24 53 -25 165 -2 232 22 64 97 138 161
158 62 19 66 19 91 -2z m-2127 -9 c9 -10 19 -36 22 -58 4 -22 14 -60 22 -85
20 -61 84 -331 84 -352 0 -22 -30 -38 -69 -38 -28 0 -61 22 -61 40 0 18 -44
50 -67 50 -18 0 -28 -9 -38 -35 -18 -41 -41 -55 -89 -55 -33 0 -36 3 -36 28 0
30 104 494 115 511 11 18 100 13 117 -6z m1043 -17 c8 -42 -8 -74 -41 -82 -14
-4 -29 -16 -34 -28 -4 -12 -6 -101 -5 -199 4 -202 2 -207 -70 -207 -30 0 -45
5 -49 16 -3 9 -6 96 -6 194 0 98 -3 185 -6 194 -3 8 -21 20 -39 26 -28 9 -34
17 -38 48 -8 69 -3 72 148 72 l134 0 6 -34z m499 3 c15 -43 0 -77 -36 -87 -43
-11 -47 -30 -46 -239 0 -197 1 -195 -72 -191 l-45 3 -3 199 c-3 208 -6 226
-46 226 -31 0 -46 19 -46 56 0 65 -2 65 148 62 l137 -3 9 -26z m-294 -208 c14
-27 13 -76 -2 -88 -7 -6 -52 -13 -100 -16 -99 -5 -118 5 -118 60 0 61 3 63
111 63 87 0 99 -2 109 -19z m-330 -472 c78 -12 194 -58 258 -100 26 -18 80
-64 120 -103 l72 -71 268 -5 c274 -5 300 -9 336 -48 26 -30 14 -65 -31 -94
-36 -22 -48 -23 -255 -26 -246 -4 -231 2 -207 -85 18 -67 9 -66 469 -73 369
-6 420 -8 457 -24 68 -30 71 -85 7 -121 -35 -20 -222 -29 -626 -29 -305 0
-301 1 -313 -84 -12 -76 -12 -76 216 -75 177 0 204 -2 244 -20 32 -14 46 -27
51 -47 9 -35 -3 -53 -52 -78 -36 -19 -59 -21 -304 -24 l-264 -4 -86 -82 c-135
-128 -274 -189 -460 -203 -81 -5 -214 9 -250 27 -8 5 -41 19 -74 31 -75 29
-145 76 -221 149 -33 32 -70 63 -82 69 -14 7 -109 11 -275 11 -281 0 -309 5
-337 64 -13 28 -12 31 17 57 46 41 83 47 294 49 106 0 197 5 202 10 12 12 -11
115 -29 130 -10 9 -135 13 -444 15 -468 4 -481 5 -518 62 -15 22 -15 26 4 51
37 50 65 53 513 59 268 3 423 8 437 15 28 14 57 102 42 129 -8 17 -27 18 -207
18 -202 -1 -240 3 -280 29 -54 35 -52 78 6 114 36 22 45 23 308 26 l271 3 59
56 c78 74 148 126 209 156 51 26 159 63 205 70 51 9 187 7 250 -4z m1201
-1539 c28 -16 23 -37 -11 -44 -17 -3 -33 -12 -36 -19 -3 -8 13 -40 35 -73 l40
-59 -22 -40 c-20 -35 -27 -40 -63 -43 -68 -5 -88 53 -21 60 45 4 46 31 3 78
-56 62 -44 121 27 142 12 3 23 6 25 7 2 1 12 -4 23 -9z m-1336 -25 c0 -14 -10
-23 -32 -30 -46 -15 -48 -21 -21 -57 14 -18 33 -48 42 -65 16 -31 15 -35 -4
-73 -17 -33 -26 -40 -50 -40 -70 0 -108 49 -46 60 51 9 55 33 13 79 -69 77
-36 154 63 148 28 -2 35 -6 35 -22z m283 2 c2 -10 -6 -25 -18 -35 -18 -15 -21
-29 -23 -108 -2 -91 -13 -124 -43 -124 -17 0 -23 25 -26 126 -2 60 -7 85 -20
98 -31 30 -23 54 20 59 72 8 107 3 110 -16z m505 9 c11 -28 10 -247 0 -257
-19 -19 -50 0 -57 33 -11 55 -7 213 6 226 16 16 45 15 51 -2z m287 -1 c16 -19
7 -31 -31 -39 -37 -7 -37 -34 1 -53 33 -16 32 -35 -2 -51 -43 -20 -32 -72 15
-72 13 0 18 -6 15 -22 -3 -20 -10 -23 -54 -26 -72 -4 -75 3 -72 144 3 116 3
118 28 125 43 12 87 10 100 -6z m-2391 -9 c16 -20 17 -242 1 -261 -16 -19 -25
-19 -44 1 -13 12 -16 39 -16 125 0 61 5 119 10 130 13 22 33 25 49 5z m245
-11 c18 -16 25 -32 22 -43 -4 -10 1 -27 9 -38 13 -16 16 -17 25 -4 6 8 8 31 5
51 -5 26 -2 39 10 49 30 25 40 -4 43 -129 3 -96 1 -120 -12 -130 -24 -20 -53
-4 -73 39 -25 55 -51 53 -55 -2 -2 -35 -7 -44 -24 -46 -18 -3 -22 3 -28 40 -9
66 -6 211 6 225 16 20 43 15 72 -12z m414 -8 c13 -13 27 -46 34 -79 10 -49 10
-62 -5 -92 -21 -46 -57 -68 -117 -74 -46 -4 -50 -3 -60 22 -15 40 -13 243 3
250 6 3 37 3 67 0 39 -3 62 -11 78 -27z m228 25 c6 -4 14 -43 17 -87 7 -97 13
-115 38 -115 23 0 28 21 31 125 3 78 4 80 28 80 24 0 25 -2 28 -81 4 -109 -19
-174 -66 -188 -73 -21 -113 33 -120 161 -5 95 9 129 44 105z m986 -9 c26 -29
31 -63 17 -105 -10 -33 -10 -45 0 -71 22 -53 19 -72 -8 -72 -18 0 -30 10 -46
39 -12 21 -26 38 -31 37 -5 0 -11 -17 -14 -38 -4 -33 -9 -38 -30 -38 -25 0
-25 1 -32 110 -9 156 -9 155 67 155 46 0 66 -4 77 -17z"/>
<path d="M2030 3855 c-15 -39 -12 -60 9 -79 17 -15 19 -15 31 0 11 12 11 20 2
35 -7 10 -12 28 -12 38 0 31 -19 35 -30 6z"/>
<path d="M2770 3174 c-70 -27 -173 -87 -211 -124 -99 -95 -139 -197 -139 -352
0 -92 3 -105 34 -174 48 -102 127 -184 226 -232 74 -37 76 -37 200 -37 114 1
131 3 192 29 93 38 184 123 233 217 63 121 67 293 7 419 -39 83 -138 180 -225
221 -67 31 -80 34 -187 36 -63 1 -122 0 -130 -3z m227 -252 c78 -41 123 -117
123 -210 0 -54 -18 -98 -61 -147 -47 -53 -99 -75 -184 -75 -61 0 -76 4 -114
29 -24 16 -56 48 -72 72 -25 38 -29 53 -29 115 0 75 19 145 48 177 9 11 37 29
62 42 60 30 165 29 227 -3z"/>
<path d="M2140 1774 c-14 -35 0 -104 23 -118 21 -13 33 2 43 53 13 66 -45 122
-66 65z"/>
<path d="M3357 1803 c-12 -11 -7 -40 9 -53 21 -18 49 9 39 39 -6 20 -34 28
-48 14z"/>
</g>
</svg>
